<?xml version="1.0" standalone="no"?>
<!DOCTYPE svg PUBLIC "-//W3C//DTD SVG 20010904//EN"
 "http://www.w3.org/TR/2001/REC-SVG-20010904/DTD/svg10.dtd">
<svg version="1.0" xmlns="http://www.w3.org/2000/svg"
 width="500.000000pt" height="500.000000pt" viewBox="0 0 500.000000 500.000000"
 preserveAspectRatio="xMidYMid meet">

<g transform="translate(0.000000,500.000000) scale(0.100000,-0.100000)"
fill="#000000" stroke="none">
<path d="M1070 2500 l0 -1970 286 2 286 3 410 862 410 863 37 0 36 0 414 -865
414 -865 283 0 284 0 0 1970 0 1970 -286 -2 -286 -3 -410 -862 -411 -863 -36
0 -36 0 -414 865 -414 865 -284 0 -283 0 0 -1970z m763 739 l356 -737 -355
-738 c-196 -407 -360 -743 -366 -749 -7 -7 -9 271 -4 930 3 517 6 1187 6 1489
0 302 2 547 4 545 2 -2 164 -335 359 -740z m1695 -1479 l-3 -740 -357 739
-357 739 357 742 357 742 3 -741 c1 -408 1 -1074 0 -1481z"/>
</g>
</svg>
